# xmcd
#
# Track frame offsets:
#	150
#	18062
#	36660
#	50807
#	64502
#	83610
#	98230
#	105967
#	127970
#	145962
#	168615
#	184772
#	202942
#	231217
#	244170
#	255817
#
# Disc length: 3575
#
# Revision: 3
# Processed by: cddbd v1.5.1PL0 Copyright (c) Steve Scherf et al.
# Submitted via: ExactAudioCopy v0.90a11
# Normalized: r2:DSETVAR1
#
DISCID=cd0df510
DTITLE=Various Artist - Blues Collection Vol. 3
DYEAR=1900
DGENRE=
TTITLE0=Big Joe Turner - Roll 'Em Pete
TTITLE1=Memphis Slim - Gamblers Blues
TTITLE2=Glenn Miller - St. Louis Blues March
TTITLE3=Ella Fitzgerald - Basin Street Blues
TTITLE4=Sonny Terry and Brownie Mc Ghee - John Henry
TTITLE5=Leadbelly - The Burgeois Blues
TTITLE6=Ray Charles - Blues Is My Middle Name
TTITLE7=B.B.King - The Thrill Is Gone
TTITLE8=Otis Rush and Little Walter - Otis Blues
TTITLE9=Sonny Terry and Brownie Mc Ghee - Drinking In The Blues
TTITLE10=Blind John Davis - Every Day I Have The Blues
TTITLE11=Nina Simone - Blues For Mama
TTITLE12=Memphis Slim - Berthamay
TTITLE13=Billie Holiday - Billie's Blues
TTITLE14=Luther Johnson - Snake
TTITLE15=Elmore James - Pickin' The Blues
EXTD=AAD
EXTT0=
EXTT1=
EXTT2=
EXTT3=
EXTT4=
EXTT5=
EXTT6=
EXTT7=
EXTT8=
EXTT9=
EXTT10=
EXTT11=
EXTT12=
EXTT13=
EXTT14=
EXTT15=
PLAYORDER=
